<?xml version="1.0" encoding="UTF-8" standalone="no"?>
<svg
   width="92"
   height="92"
   viewBox="0 0 92 92"
   fill="none"
   version="1.1"
   id="svg3"
   sodipodi:docname="Insta_ico.svg"
   inkscape:version="1.3.2 (091e20e, 2023-11-25, custom)"
   xmlns:inkscape="http://www.inkscape.org/namespaces/inkscape"
   xmlns:sodipodi="http://sodipodi.sourceforge.net/DTD/sodipodi-0.dtd"
   xmlns="http://www.w3.org/2000/svg"
   xmlns:svg="http://www.w3.org/2000/svg">
  <defs
     id="defs3" />
  <sodipodi:namedview
     id="namedview3"
     pagecolor="#505050"
     bordercolor="#eeeeee"
     borderopacity="1"
     inkscape:showpageshadow="0"
     inkscape:pageopacity="0"
     inkscape:pagecheckerboard="0"
     inkscape:deskcolor="#505050"
     inkscape:zoom="8.923913"
     inkscape:cx="46.056029"
     inkscape:cy="45.887942"
     inkscape:window-width="1920"
     inkscape:window-height="1017"
     inkscape:window-x="-8"
     inkscape:window-y="-8"
     inkscape:window-maximized="1"
     inkscape:current-layer="svg3" />
  <path
     d="M46 64.75C56.3555 64.75 64.75 56.3555 64.75 46C64.75 35.6445 56.3555 27.25 46 27.25C35.6447 27.25 27.25 35.6445 27.25 46C27.25 56.3555 35.6447 64.75 46 64.75Z"
     stroke="white"
     stroke-width="1.5"
     stroke-miterlimit="10"
     id="path1"
     style="stroke-width:3.5;stroke-dasharray:none" />
  <path
     d="M68.5 1H23.5C11.0736 1 1 11.0736 1 23.5V68.5C1 80.9265 11.0736 91 23.5 91H68.5C80.9265 91 91 80.9265 91 68.5V23.5C91 11.0736 80.9265 1 68.5 1Z"
     stroke="white"
     stroke-width="1.5"
     stroke-linecap="round"
     stroke-linejoin="round"
     id="path2"
     style="stroke-width:3.5;stroke-dasharray:none" />
  <path
     d="M70.375 27.25C73.4815 27.25 76 24.7316 76 21.625C76 18.5184 73.4815 16 70.375 16C67.2685 16 64.75 18.5184 64.75 21.625C64.75 24.7316 67.2685 27.25 70.375 27.25Z"
     fill="white"
     id="path3" />
</svg>
