<?xml version="1.0" encoding="UTF-8"?>
<!DOCTYPE svg PUBLIC "-//W3C//DTD SVG 1.1//EN" "http://www.w3.org/Graphics/SVG/1.1/DTD/svg11.dtd">
<svg xmlns="http://www.w3.org/2000/svg" version="1.1" width="65px" height="79px" style="shape-rendering:geometricPrecision; text-rendering:geometricPrecision; image-rendering:optimizeQuality; fill-rule:evenodd; clip-rule:evenodd" xmlns:xlink="http://www.w3.org/1999/xlink">
<g><path style="opacity:1" fill="#eaeaea" d="M -0.5,-0.5 C 21.1667,-0.5 42.8333,-0.5 64.5,-0.5C 64.5,20.1667 64.5,40.8333 64.5,61.5C 64.1667,61.5 63.8333,61.5 63.5,61.5C 63.6666,46.163 63.4999,30.8297 63,15.5C 58.6513,11.3184 54.4846,6.98507 50.5,2.5C 40.1828,1.33437 29.8494,1.1677 19.5,2C 17.8588,3.12901 16.8588,4.62901 16.5,6.5C 14.6921,7.91791 14.0254,9.91791 14.5,12.5C 10.6707,11.931 7.33732,12.5977 4.5,14.5C 3.5,14.8333 2.83333,15.5 2.5,16.5C 1.22235,16.7822 0.222348,17.4489 -0.5,18.5C -0.5,12.1667 -0.5,5.83333 -0.5,-0.5 Z"/></g>
<g><path style="opacity:1" fill="#c7c7c7" d="M 16.5,6.5 C 16.5,8.83333 16.5,11.1667 16.5,13.5C 12.3998,13.2367 8.39977,13.5701 4.5,14.5C 7.33732,12.5977 10.6707,11.931 14.5,12.5C 14.0254,9.91791 14.6921,7.91791 16.5,6.5 Z"/></g>
<g><path style="opacity:1" fill="#757575" d="M 2.5,16.5 C 1.9101,17.766 1.4101,19.0993 1,20.5C 0.171152,39.3379 0.337819,58.0045 1.5,76.5C 1.5,76.8333 1.5,77.1667 1.5,77.5C 0.833333,77.5 0.166667,77.5 -0.5,77.5C -0.5,57.8333 -0.5,38.1667 -0.5,18.5C 0.222348,17.4489 1.22235,16.7822 2.5,16.5 Z"/></g>
<g><path style="opacity:1" fill="#202020" d="M 63.5,61.5 C 59.5,61.5 55.5,61.5 51.5,61.5C 50.5128,66.3054 50.1795,71.3054 50.5,76.5C 34.1667,76.5 17.8333,76.5 1.5,76.5C 0.337819,58.0045 0.171152,39.3379 1,20.5C 1.4101,19.0993 1.9101,17.766 2.5,16.5C 2.83333,15.5 3.5,14.8333 4.5,14.5C 8.39977,13.5701 12.3998,13.2367 16.5,13.5C 16.5,11.1667 16.5,8.83333 16.5,6.5C 16.8588,4.62901 17.8588,3.12901 19.5,2C 29.8494,1.1677 40.1828,1.33437 50.5,2.5C 54.4846,6.98507 58.6513,11.3184 63,15.5C 63.4999,30.8297 63.6666,46.163 63.5,61.5 Z"/></g>
<g><path style="opacity:1" fill="#d1d1d1" d="M 5.5,17.5 C 4.52558,36.1202 4.19224,54.7868 4.5,73.5C 18.8333,73.5 33.1667,73.5 47.5,73.5C 33.0095,74.496 18.3428,74.8293 3.5,74.5C 3.33339,55.8304 3.50005,37.1637 4,18.5C 4.38258,17.944 4.88258,17.6107 5.5,17.5 Z"/></g>
<g><path style="opacity:1" fill="#7b7b7b" d="M 44.5,4.5 C 45.4872,9.30537 45.8205,14.3054 45.5,19.5C 50.8333,19.5 56.1667,19.5 61.5,19.5C 61.5,32.5 61.5,45.5 61.5,58.5C 47.5,58.5 33.5,58.5 19.5,58.5C 19.5,58.1667 19.5,57.8333 19.5,57.5C 33.1667,57.5 46.8333,57.5 60.5,57.5C 60.5,45.1667 60.5,32.8333 60.5,20.5C 55.1667,20.5 49.8333,20.5 44.5,20.5C 44.5,15.1667 44.5,9.83333 44.5,4.5 Z"/></g>
<g><path style="opacity:1" fill="#636363" d="M 20.5,5.5 C 19.5276,22.7863 19.1943,40.1196 19.5,57.5C 19.5,57.8333 19.5,58.1667 19.5,58.5C 18.3382,41.3382 18.1715,24.0049 19,6.5C 19.3826,5.94404 19.8826,5.61071 20.5,5.5 Z"/></g>
<g><path style="opacity:1" fill="#f8f8f8" d="M 47.5,73.5 C 33.1667,73.5 18.8333,73.5 4.5,73.5C 4.19224,54.7868 4.52558,36.1202 5.5,17.5C 8.62482,16.5206 11.9581,16.1872 15.5,16.5C 15.5,31.5 15.5,46.5 15.5,61.5C 26.1667,61.5 36.8333,61.5 47.5,61.5C 47.5,65.5 47.5,69.5 47.5,73.5 Z"/></g>
<g><path style="opacity:1" fill="#787878" d="M 49.5,6.5 C 48.5206,9.62482 48.1872,12.9581 48.5,16.5C 52.3293,17.069 55.6627,16.4023 58.5,14.5C 59.404,15.209 59.7373,16.209 59.5,17.5C 55.5,17.5 51.5,17.5 47.5,17.5C 47.1758,13.4454 47.5091,9.44539 48.5,5.5C 49.1067,5.62358 49.44,5.95691 49.5,6.5 Z"/></g>
<g><path style="opacity:1" fill="#e7e7e7" d="M 49.5,6.5 C 52.5,9.16667 55.5,11.8333 58.5,14.5C 55.6627,16.4023 52.3293,17.069 48.5,16.5C 48.1872,12.9581 48.5206,9.62482 49.5,6.5 Z"/></g>
<g><path style="opacity:1" fill="#fafafa" d="M 44.5,4.5 C 44.5,9.83333 44.5,15.1667 44.5,20.5C 49.8333,20.5 55.1667,20.5 60.5,20.5C 60.5,32.8333 60.5,45.1667 60.5,57.5C 46.8333,57.5 33.1667,57.5 19.5,57.5C 19.1943,40.1196 19.5276,22.7863 20.5,5.5C 28.445,4.56322 36.445,4.22989 44.5,4.5 Z"/></g>
<g><path style="opacity:1" fill="#606060" d="M 41.5,35.5 C 44.8333,35.5 48.1667,35.5 51.5,35.5C 51.5,36.8333 51.5,38.1667 51.5,39.5C 48.1667,39.5 44.8333,39.5 41.5,39.5C 44.3583,38.834 47.3583,38.1674 50.5,37.5C 47.3583,36.8326 44.3583,36.166 41.5,35.5 Z"/></g>
<g><path style="opacity:1" fill="#5d5d5d" d="M 38.5,35.5 C 35.6417,36.166 32.6417,36.8326 29.5,37.5C 32.6417,38.1674 35.6417,38.834 38.5,39.5C 35.1667,39.5 31.8333,39.5 28.5,39.5C 28.5,38.1667 28.5,36.8333 28.5,35.5C 31.8333,35.5 35.1667,35.5 38.5,35.5 Z"/></g>
<g><path style="opacity:1" fill="#1c1c1c" d="M 41.5,35.5 C 44.3583,36.166 47.3583,36.8326 50.5,37.5C 47.3583,38.1674 44.3583,38.834 41.5,39.5C 41.5,42.5 41.5,45.5 41.5,48.5C 40.5,48.5 39.5,48.5 38.5,48.5C 38.5,45.5 38.5,42.5 38.5,39.5C 35.6417,38.834 32.6417,38.1674 29.5,37.5C 32.6417,36.8326 35.6417,36.166 38.5,35.5C 38.5,32.5 38.5,29.5 38.5,26.5C 39.5,26.5 40.5,26.5 41.5,26.5C 41.5,29.5 41.5,32.5 41.5,35.5 Z"/></g>
<g><path style="opacity:1" fill="#646464" d="M 44.5,4.5 C 36.445,4.22989 28.445,4.56322 20.5,5.5C 20.6107,4.88258 20.944,4.38258 21.5,4C 29.3446,3.17767 37.0113,3.34434 44.5,4.5 Z"/></g>
<g><path style="opacity:1" fill="#f1f1f1" d="M 51.5,61.5 C 55.5,61.5 59.5,61.5 63.5,61.5C 63.8333,61.5 64.1667,61.5 64.5,61.5C 64.5,67.1667 64.5,72.8333 64.5,78.5C 42.8333,78.5 21.1667,78.5 -0.5,78.5C -0.5,78.1667 -0.5,77.8333 -0.5,77.5C 0.166667,77.5 0.833333,77.5 1.5,77.5C 18.1667,77.5 34.8333,77.5 51.5,77.5C 51.5,72.1667 51.5,66.8333 51.5,61.5 Z"/></g>
<g><path style="opacity:1" fill="#575757" d="M 51.5,61.5 C 51.5,66.8333 51.5,72.1667 51.5,77.5C 34.8333,77.5 18.1667,77.5 1.5,77.5C 1.5,77.1667 1.5,76.8333 1.5,76.5C 17.8333,76.5 34.1667,76.5 50.5,76.5C 50.1795,71.3054 50.5128,66.3054 51.5,61.5 Z"/></g>
</svg>
