<?xml version="1.0" encoding="UTF-8" standalone="no"?>
<svg
   width="92"
   height="92"
   viewBox="0 0 92 92"
   fill="none"
   version="1.1"
   id="svg5"
   sodipodi:docname="Linke_ico.svg"
   inkscape:version="1.3.2 (091e20e, 2023-11-25, custom)"
   xmlns:inkscape="http://www.inkscape.org/namespaces/inkscape"
   xmlns:sodipodi="http://sodipodi.sourceforge.net/DTD/sodipodi-0.dtd"
   xmlns="http://www.w3.org/2000/svg"
   xmlns:svg="http://www.w3.org/2000/svg">
  <defs
     id="defs5" />
  <sodipodi:namedview
     id="namedview5"
     pagecolor="#505050"
     bordercolor="#eeeeee"
     borderopacity="1"
     inkscape:showpageshadow="0"
     inkscape:pageopacity="0"
     inkscape:pagecheckerboard="0"
     inkscape:deskcolor="#505050"
     inkscape:zoom="8.923913"
     inkscape:cx="46.056029"
     inkscape:cy="45.887942"
     inkscape:window-width="1920"
     inkscape:window-height="1017"
     inkscape:window-x="-8"
     inkscape:window-y="-8"
     inkscape:window-maximized="1"
     inkscape:current-layer="svg5" />
  <path
     d="M87.25 1H4.75C2.67895 1 1 2.67895 1 4.75V87.25C1 89.321 2.67895 91 4.75 91H87.25C89.321 91 91 89.321 91 87.25V4.75C91 2.67895 89.321 1 87.25 1Z"
     stroke="white"
     stroke-width="1.5"
     stroke-linecap="round"
     stroke-linejoin="round"
     id="path1"
     style="stroke-width:3.5;stroke-dasharray:none" />
  <path
     d="M42.25 38.5V68.5"
     stroke="white"
     stroke-width="1.5"
     stroke-linecap="round"
     stroke-linejoin="round"
     id="path2"
     style="stroke-width:3.5;stroke-dasharray:none" />
  <path
     d="M27.25 38.5V68.5"
     stroke="white"
     stroke-width="1.5"
     stroke-linecap="round"
     stroke-linejoin="round"
     id="path3"
     style="stroke-width:3.5;stroke-dasharray:none" />
  <path
     d="M42.25 51.625C42.25 48.144 43.633 44.8055 46.094 42.344C48.5555 39.883 51.894 38.5 55.375 38.5C58.856 38.5 62.1945 39.883 64.656 42.344C67.117 44.8055 68.5 48.144 68.5 51.625V68.5"
     stroke="white"
     stroke-width="1.5"
     stroke-linecap="round"
     stroke-linejoin="round"
     id="path4"
     style="stroke-width:3.5;stroke-dasharray:none" />
  <path
     d="M27.25 31C30.3566 31 32.875 28.4816 32.875 25.375C32.875 22.2684 30.3566 19.75 27.25 19.75C24.1434 19.75 21.625 22.2684 21.625 25.375C21.625 28.4816 24.1434 31 27.25 31Z"
     fill="white"
     id="path5" />
</svg>
