<?xml version="1.0" encoding="UTF-8" standalone="no"?>
<svg
   width="92"
   height="78"
   viewBox="0 0 92 78"
   fill="none"
   version="1.1"
   id="svg2"
   sodipodi:docname="You_ico.svg"
   inkscape:version="1.3.2 (091e20e, 2023-11-25, custom)"
   xmlns:inkscape="http://www.inkscape.org/namespaces/inkscape"
   xmlns:sodipodi="http://sodipodi.sourceforge.net/DTD/sodipodi-0.dtd"
   xmlns="http://www.w3.org/2000/svg"
   xmlns:svg="http://www.w3.org/2000/svg">
  <defs
     id="defs2" />
  <sodipodi:namedview
     id="namedview2"
     pagecolor="#505050"
     bordercolor="#eeeeee"
     borderopacity="1"
     inkscape:showpageshadow="0"
     inkscape:pageopacity="0"
     inkscape:pagecheckerboard="0"
     inkscape:deskcolor="#505050"
     inkscape:zoom="10.525641"
     inkscape:cx="45.982948"
     inkscape:cy="38.904994"
     inkscape:window-width="1920"
     inkscape:window-height="1017"
     inkscape:window-x="-8"
     inkscape:window-y="-8"
     inkscape:window-maximized="1"
     inkscape:current-layer="svg2" />
  <path
     d="M59.8351 38.9998L39.0698 24V53.9996L59.8351 38.9998Z"
     stroke="white"
     stroke-width="1.5"
     stroke-linecap="round"
     stroke-linejoin="round"
     id="path1"
     style="stroke-width:3.5;stroke-dasharray:none" />
  <path
     d="m 1,39 c 0,14.0204 1.3281,22.2418 2.34043,26.4702 0.26769,1.15 0.78332,2.2145 1.50447,3.107 0.7212,0.8919 1.6274,1.5864 2.64425,2.0254 14.50105,6.061 38.50235,5.897 38.50235,5.897 0,0 24.0009,0.164 38.5025,-5.897 1.0198,-0.4365 1.9293,-1.13 2.6538,-2.0219 0.7245,-0.8925 1.2427,-1.9585 1.5122,-3.1105 C 89.6719,61.2513 91,53.0204 91,39 91,24.9798 89.6719,16.758 88.66,12.53 88.3933,11.3737 87.8764,10.3029 87.152,9.40619 86.4275,8.5095 85.5161,7.81276 84.494,7.37381 84.103443,7.2112103 83.705996,7.0531088 83.302314,6.899381 68.717025,1.3451074 45.9915,1.50044 45.9915,1.50044 c 0,0 -24.0013,-0.16405 -38.50235,5.89678 C 6.46662,7.83621 5.55535,8.5329 4.83083,9.42959 4.10635,10.3263 3.58948,11.3972 3.32313,12.5534 2.3281,16.7534 1,24.9798 1,39 Z"
     stroke="#ffffff"
     stroke-width="1.5"
     stroke-linecap="round"
     stroke-linejoin="round"
     id="path2"
     style="stroke-width:3.5;stroke-dasharray:none"
     sodipodi:nodetypes="scccccccscccsccccs" />
</svg>
